<svg xmlns="http://www.w3.org/2000/svg" viewBox="0 0 66.61 65.79"><defs><style>.cls-1{fill:#42e5ba;}.cls-2{fill:none;stroke:#000;stroke-linecap:round;stroke-linejoin:bevel;}</style></defs><title>teamshape_iconsset_v1</title><g id="Layer_1" data-name="Layer 1"><path class="cls-1" d="M15.42,15.23c-1.4.76-2.23,1.66-2.23,2.62,0,2.74,6.6,5,14.75,5A37.8,37.8,0,0,0,35.87,22C30.61,20.34,20.87,17.07,15.42,15.23Z"/><circle class="cls-2" cx="45.79" cy="44.21" r="14.75"/><ellipse class="cls-2" cx="27.94" cy="17.85" rx="14.75" ry="4.96"/><path class="cls-2" d="M42.69,24.5c0,2.74-6.61,5-14.75,5s-14.75-2.22-14.75-5V17.85"/><path class="cls-2" d="M34.1,34.69a40.69,40.69,0,0,1-6.16.45c-8.15,0-14.75-2.22-14.75-5,0-1,.93-2,2.52-2.77"/><path class="cls-2" d="M31,41.69c-1,.07-2,.11-3.1.11-8.15,0-14.75-2.22-14.75-5V30.18"/><line class="cls-2" x1="45.79" y1="39.04" x2="45.79" y2="49.38"/><line class="cls-2" x1="50.97" y1="44.21" x2="40.62" y2="44.21"/></g></svg>