<svg xmlns="http://www.w3.org/2000/svg" viewBox="0 0 66.61 65.79"><defs><style>.cls-1{fill:#42e5ba;}.cls-2{fill:none;stroke:#000;stroke-linecap:round;stroke-linejoin:round;}</style></defs><title>teamshape_iconsset_v1</title><g id="Layer_1" data-name="Layer 1"><path class="cls-1" d="M31.62,8.32a14.56,14.56,0,0,0-1.63.1A17,17,0,0,1,45.2,25.32a16.81,16.81,0,0,1-.77,5h0L37.65,54.23h3.41l6.79-23.87h0a17,17,0,0,0-16.23-22Z"/><path class="cls-2" d="M15.3,20.55a17,17,0,1,1,32.55,9.81"/><path class="cls-2" d="M15.31,20.55l-5.52,18h4.33v5.36a3.94,3.94,0,0,0,3.94,3.94H28.62"/><line class="cls-2" x1="47.85" y1="30.36" x2="41.06" y2="54.23"/><line class="cls-2" x1="22.43" y1="47.83" x2="20.61" y2="54.23"/><path class="cls-2" d="M39.33,33.68l.84-.85,1-1-1.63-2.54a8.31,8.31,0,0,0,.48-1.1L43,27.52V23.41l-2.82-.61a7.72,7.72,0,0,0-.51-1.26l1.55-2.42-1-1-.84-.84-1-1L36,17.72a10.12,10.12,0,0,0-1.35-.57L34,14.45H29.9l-.59,2.7a10.12,10.12,0,0,0-1.35.57l-2.34-1.5-1,1-.84.84-1,1,1.55,2.42a8.73,8.73,0,0,0-.51,1.26l-2.81.61v4.11l2.93.64a8.27,8.27,0,0,0,.47,1.1L22.71,31.8l1,1,.84.85,1,1L28.22,33a7.54,7.54,0,0,0,1,.42l.66,3H34l.66-3"/></g></svg>