<svg xmlns="http://www.w3.org/2000/svg" viewBox="0 0 66.61 65.79"><defs><style>.cls-1{fill:#42e5ba;}.cls-2,.cls-3{fill:none;stroke:#000;stroke-linecap:round;}.cls-2{stroke-linejoin:bevel;}.cls-3{stroke-linejoin:round;}</style></defs><title>teamshape_iconsset_v1</title><g id="Layer_1" data-name="Layer 1"><path class="cls-1" d="M20.56,57.4V34.69h29v-3.2H17.35V54.9a2.5,2.5,0,0,0,2.51,2.5Z"/><line class="cls-2" x1="20.47" y1="16.37" x2="14.24" y2="14.28"/><line class="cls-2" x1="46.4" y1="16.37" x2="52.63" y2="14.28"/><path class="cls-3" d="M17.35,31.49H49.51a0,0,0,0,1,0,0V55.63A1.49,1.49,0,0,1,48,57.12H18.85a1.49,1.49,0,0,1-1.49-1.49V31.49A0,0,0,0,1,17.35,31.49Z"/><polyline class="cls-3" points="46.45 31.49 13.98 31.49 13.98 22.86 52.6 22.86 52.6 26.77"/><path class="cls-3" d="M25.53,17a2.94,2.94,0,0,0-.17,5.88v0h7.92S29.37,17,25.53,17Z"/><path class="cls-3" d="M41.05,17a2.94,2.94,0,0,1,.18,5.88v0H33.29S37.22,17,41.05,17Z"/><line class="cls-2" x1="33.29" y1="14.15" x2="33.29" y2="7.47"/></g></svg>