<svg xmlns="http://www.w3.org/2000/svg" viewBox="0 0 66.61 65.79"><defs><style>.cls-1{fill:#42e5ba;}.cls-2,.cls-3{fill:none;stroke:#000;stroke-linecap:round;}.cls-2{stroke-linejoin:round;}.cls-3{stroke-linejoin:bevel;}</style></defs><title>teamshape_iconsset_v1</title><g id="Layer_1" data-name="Layer 1"><path class="cls-1" d="M23.46,34.49l-2.11-11H16.94l2.11,11A14.34,14.34,0,0,0,33.13,46.12a13.21,13.21,0,0,0,2.19-.19A14.31,14.31,0,0,1,23.46,34.49Z"/><path class="cls-2" d="M27.89,23.51H17.14l2.12,11A14.32,14.32,0,0,0,33.33,46.12h0A14.34,14.34,0,0,0,47.41,34.49l2.11-11h-6"/><line class="cls-2" x1="33.33" y1="46.12" x2="33.33" y2="58.81"/><line class="cls-2" x1="23.14" y1="58.81" x2="43.53" y2="58.81"/><path class="cls-2" d="M48.79,27.33h8.92s-.41,11.25-6.55,15.23"/><path class="cls-2" d="M17.82,27.33H8.9s.4,11.25,6.55,15.23"/><polygon class="cls-2" points="33.33 8.97 36.45 15.29 43.42 16.3 38.38 21.22 39.57 28.17 33.33 24.89 27.1 28.17 28.29 21.22 23.24 16.3 30.21 15.29 33.33 8.97"/><line class="cls-3" x1="27.05" y1="11.16" x2="23.5" y2="6.98"/><line class="cls-3" x1="40.58" y1="11.16" x2="44.12" y2="6.98"/></g></svg>